# xmcd
#
# Track frame offsets:
# 150
# 24458
# 50173
# 73884
# 94299
# 120562
# 144390
# 164999
# 182818
# 202046
# 222107
#
# Disc length: 3320 seconds
#
# Revision: 0
# Processed by: cddbd v1.5.2PL0 Copyright (c) Steve Scherf et al.
# Submitted via: Audion 3.0.2 (http://www.panic.com/audion/)
#
DISCID=b00cf60b
DTITLE=Animal Collective - Merriweather Post Pavilion
DYEAR=1900
DGENRE=
TTITLE0=In The Flowers
TTITLE1=My Girls
TTITLE2=Also Frightened
TTITLE3=Summertime Clothes
TTITLE4=Daily Routine
TTITLE5=Bluish
TTITLE6=Guys Eyes
TTITLE7=Taste
TTITLE8=Lion In A Coma
TTITLE9=No More Runnin
TTITLE10=Brother Sport
EXTD=
EXTT0=
EXTT1=
EXTT2=
EXTT3=
EXTT4=
EXTT5=
EXTT6=
EXTT7=
EXTT8=
EXTT9=
EXTT10=
PLAYORDER=
